<svg xmlns="http://www.w3.org/2000/svg" xmlns:xlink="http://www.w3.org/1999/xlink" fill="none" version="1.1" width="16" height="16" viewBox="0 0 16 16"><defs><clipPath id="master_svg0_104_00266/104_00138"><rect x="0" y="0" width="16" height="16" rx="0"/></clipPath></defs><g clip-path="url(#master_svg0_104_00266/104_00138)"><g><path d="M2.947723515625,3.7113288671875L0.924519515625,1.7957048671875L1.840043515625,0.9285888671875L14.650153515625,13.0620888671875L13.734653515625,13.9285888671875L11.593053515625,11.9001888671875C10.455113515625,12.5837888671875,9.134903515625,12.9458888671875,7.787353515625,12.9437888671875C4.2986735156249996,12.9437888671875,1.3961895156250002,10.5661388671875,0.787353515625,7.4285888671875C1.065586515625,6.0011988671875,1.823623515625,4.6972588671875,2.947723515625,3.7113288671875L2.947723515625,3.7113288671875ZM9.571163515625,9.9851988671875L8.623933515625,9.0880588671875C7.881463515625,9.4245188671875,6.995673515625,9.2808888671875,6.413663515625,8.7296488671875C5.831663515625,8.1784188671875,5.680003515625,7.3394488671875,6.035253515625,6.6362388671875L5.088023515625,5.7390888671875C4.239273515624999,6.9538288671875,4.410813515625,8.566608867187501,5.498313515625,9.5966188671875C6.585803515625,10.6266188671875,8.288613515625,10.7890788671875,9.571163515625,9.9851988671875ZM5.182493515625,2.3790888671875C5.989313515625,2.0788188671875,6.868603515625,1.9133628671875,7.787353515625,1.9133628671875C11.276053515625,1.9133628671875,14.178553515625,4.2910388671875,14.787353515625,7.4285888671875C14.589053515625,8.4493288671875,14.143453515625,9.4125888671875,13.485553515625,10.2425788671875L10.988153515625,7.8771588671875C11.306953515625,5.8427788671875,9.461033515625,4.0944388671875,7.313093515625,4.3964388671875L5.182493515625,2.3790888671875L5.182493515625,2.3790888671875Z" fill="#C9CDD4" fill-opacity="1"/></g></g></svg>