<svg xmlns="http://www.w3.org/2000/svg" xmlns:xlink="http://www.w3.org/1999/xlink" fill="none" version="1.1" width="16" height="16" viewBox="0 0 16 16"><defs><clipPath id="master_svg0_142_01390"><rect x="0" y="0" width="16" height="16" rx="0"/></clipPath></defs><g clip-path="url(#master_svg0_142_01390)"><g><path d="M1,7.5C1.6081889999999999,4.37111,4.5113199999999996,2,8,2C11.4887,2,14.3912,4.37111,15,7.5C14.3918,10.62889,11.4887,13,8,13C4.5113199999999996,13,1.6088360000000002,10.62889,1,7.5ZM8,10.55556C9.78667,10.55556,11.235,9.18754,11.235,7.5C11.235,5.81246,9.78667,4.44444,8,4.44444C6.21333,4.44444,4.76495,5.81246,4.76495,7.5C4.76495,9.18754,6.21333,10.55556,8,10.55556ZM8,9.33333C6.928,9.33333,6.05897,8.51252,6.05897,7.5C6.05897,6.48748,6.928,5.66667,8,5.66667C9.072,5.66667,9.94103,6.48748,9.94103,7.5C9.94103,8.51252,9.072,9.33333,8,9.33333Z" fill="#C9CDD4" fill-opacity="1"/></g></g></svg>